<?xml version="1.0" encoding="UTF-8" standalone="no"?>
<!DOCTYPE svg PUBLIC "-//W3C//DTD SVG 1.1//EN" "http://www.w3.org/Graphics/SVG/1.1/DTD/svg11.dtd">
<svg version="1.1" xmlns="http://www.w3.org/2000/svg" xmlns:xlink="http://www.w3.org/1999/xlink" preserveAspectRatio="xMidYMid meet" viewBox="0 0 82 130" width="82" height="130"><defs><path d="M65.61 93.96C65.61 77.8 47.32 70.11 36.11 64.73C23.82 68.57 17.78 77.22 17.78 90.89C17.78 109.36 26.18 123.39 43 123.39C43 123.39 43 123.39 43 123.39C58.52 123.39 65.61 110.88 65.61 93.96ZM23.52 24.34C23.52 34.15 29.58 42.61 41.86 49.74C41.86 49.74 59.82 59.35 59.82 59.35C70.95 65.89 81.87 74.16 81.87 90.12C81.87 116.19 69.04 129.13 43.19 129.13C22.06 129.13 4.39 115.07 4.39 93.2C4.39 75.89 17.14 66.27 32.37 62.23C17.49 53.78 10.13 44.74 10.13 35.31C10.13 27.23 14.35 19.92 22.76 13.2C22.76 13.2 0 13.2 0 13.2C0 13.2 2.48 0 2.48 0C2.48 0 80.52 0 80.52 0C80.52 0 77.65 13.2 77.65 13.2C77.65 13.2 32.71 13.2 32.71 13.2C32.71 13.2 32.71 13.2 32.71 13.2C27.23 13.2 23.52 18.38 23.52 24.34Z" id="dd1oDTjqv"></path></defs><g><g><g><use xlink:href="#dd1oDTjqv" opacity="1" fill="#ffffff" fill-opacity="1"></use><g><use xlink:href="#dd1oDTjqv" opacity="1" fill-opacity="0" stroke="#000000" stroke-width="1" stroke-opacity="0"></use></g></g></g></g></svg>